<?xml version="1.0" encoding="utf-8"?>
<!-- Generator: Adobe Illustrator 15.1.0, SVG Export Plug-In . SVG Version: 6.00 Build 0)  -->
<!DOCTYPE svg PUBLIC "-//W3C//DTD SVG 1.1//EN" "http://www.w3.org/Graphics/SVG/1.1/DTD/svg11.dtd">
<svg version="1.1" id="Layer_1" xmlns="http://www.w3.org/2000/svg" xmlns:xlink="http://www.w3.org/1999/xlink" x="0px" y="0px"
	 width="1284px" height="1284px" viewBox="0 0 1284 1284" enable-background="new 0 0 1284 1284" xml:space="preserve">
<g id="gxf10b" transform="scale(1 -1) translate(0 -1280)">
	<path id="xf10b" fill="#333333" d="M280.802,196.41v963.19c0,32.609,11.915,60.826,35.744,84.656
		c23.829,23.828,52.048,35.743,84.656,35.743h481.596c32.607,0,60.826-11.914,84.655-35.743
		c23.829-23.83,35.744-52.047,35.744-84.656V196.41c0-32.607-11.915-60.826-35.744-84.656
		c-23.83-23.828-52.048-35.742-84.657-35.742H401.201c-32.608,0-60.826,11.914-84.656,35.742
		C292.717,135.584,280.802,163.802,280.802,196.41z M371.101,346.908c0-8.15,2.979-15.205,8.936-21.162
		c5.956-5.957,13.012-8.938,21.164-8.938h481.595c8.152,0,15.207,2.98,21.164,8.938s8.937,13.012,8.937,21.162v662.193
		c0,8.152-2.979,15.209-8.937,21.165c-5.957,5.958-13.012,8.935-21.164,8.935H401.201c-8.152,0-15.208-2.977-21.164-8.935
		c-5.957-5.956-8.936-13.013-8.936-21.165V346.908z M551.7,1144.551c0-10.033,5.017-15.05,15.05-15.05h150.499
		c10.032,0,15.05,5.018,15.05,15.05c0,10.033-5.018,15.05-15.05,15.05H566.75C556.716,1159.6,551.7,1154.583,551.7,1144.551z
		 M566.75,196.41c0-20.693,7.367-38.406,22.104-53.145c14.736-14.734,32.451-22.105,53.145-22.105
		c20.693,0,38.409,7.371,53.145,22.105c14.736,14.738,22.105,32.451,22.105,53.145s-7.369,38.41-22.105,53.148
		c-14.736,14.736-32.452,22.102-53.145,22.102c-20.694,0-38.408-7.365-53.145-22.102C574.117,234.82,566.75,217.103,566.75,196.41z"
		/>
</g>
</svg>
