<?xml version="1.0" encoding="utf-8"?>
<!-- Generator: Adobe Illustrator 16.0.0, SVG Export Plug-In . SVG Version: 6.00 Build 0)  -->
<!DOCTYPE svg PUBLIC "-//W3C//DTD SVG 1.1//EN" "http://www.w3.org/Graphics/SVG/1.1/DTD/svg11.dtd">
<svg version="1.1" id="Laptop_1_" xmlns="http://www.w3.org/2000/svg" xmlns:xlink="http://www.w3.org/1999/xlink" x="0px" y="0px"
	 width="841.889px" height="470.468px" viewBox="0 62.406 841.889 470.468" enable-background="new 0 62.406 841.889 470.468"
	 xml:space="preserve">
<g id="Rounded_Rectangle_21">
	<path fill="#1A1B1D" d="M730.463,62.406H99.046c-27.238,0-24.762,22.285-24.762,49.523v334.279h680.939V111.929
		C755.224,84.691,757.7,62.406,730.463,62.406z"/>
</g>
<g id="Rectangle_38">
	<rect x="99.046" y="87.168" fill="#585859" width="631.417" height="334.279"/>
</g>
<g id="Rectangle_1_copy_4">
	<polygon fill="#767677" points="99.046,87.168 99.046,421.447 346.66,421.447 458.087,87.168 	"/>
</g>
<g id="Rounded_Rectangle_22">
	<path fill="#1A1B1D" d="M544.752,470.97c0,7.429-29.714,24.762-37.143,24.762H309.518c-7.428,0-37.142-17.333-37.142-24.762H0
		c0,0,0,16.095,0,37.143c0,21.047,16.095,24.761,37.142,24.761h767.605c21.047,0,37.142-3.714,37.142-24.761
		c0-21.048,0-37.143,0-37.143H544.752z"/>
</g>
</svg>
