<svg version="1.1" id="Layer_1" xmlns="http://www.w3.org/2000/svg" xmlns:xlink="http://www.w3.org/1999/xlink" x="0px" y="0px" width="100%" height="100%" viewBox="0 0 512 512" enable-background="new 0 0 512 512" xml:space="preserve" ><rect id="svgEditorBackground" x="0" y="0" width="512" height="512" style="fill: none; stroke: none;"/>
<path fill-rule="evenodd" clip-rule="evenodd" fill="#FFFFFF" d="M416,0h-320c-17.686996459960938,0,-32,14.32800006866455,-32,32v448c0,17.68798828125,14.313003540039062,32,32,32h320c17.68798828125,0,32,-14.31298828125,32,-32v-448c0,-17.672000885009766,-14.31201171875,-32,-32,-32ZM256,496c-13.25,0,-24,-10.75,-24,-24s10.75,-24,24,-24s24,10.75,24,24s-10.75,24,-24,24ZM400,432h-288v-384h288v384Z"/>
</svg>